<svg width="734" height="640" viewBox="0 0 734 640" fill="none" xmlns="http://www.w3.org/2000/svg" xmlns:xlink="http://www.w3.org/1999/xlink">
<rect width="734" height="640" fill="url(#pattern0)"/>
<defs>
<pattern id="pattern0" patternContentUnits="objectBoundingBox" width="1" height="1">
<use xlink:href="#image0" transform="translate(-0.00408719) scale(0.0013624 0.0015625)"/>
</pattern>
<image id="image0" width="740" height="640" xlink:href="img/home 1.png"/>
</defs>
<path d="M223 533.7L443.8 541.7L513 528V549.7L444.5 569.4L223 558.4V533.7Z" fill="#3595F6" fill-opacity="0.75"/>
<path d="M224 532.7V507.7L444.3 511L514 507.7V527.7L444.7 540.7L224 532.7Z" fill="#3595F6" fill-opacity="0.75"/>
<path d="M224 506.7V481.7H445H514V504.7L446 511.7L224 506.7Z" fill="#3595F6" fill-opacity="0.75"/>
<path d="M224 482.7V457.7L445.3 454L513 460.7V482.7H445" fill="#3595F6" fill-opacity="0.75"/>
<path d="M224 456.7V430.7L445.5 427.4L514 438.4V459.7L445 453L224 456.7Z" fill="#3595F6" fill-opacity="0.75"/>
<path d="M223 429.7V406L444 393.7L515 416.7V438L444 425.7L223 429.7Z" fill="#3595F6" fill-opacity="0.75"/>
<path d="M223 407.7V382.7L445.2 366.4L515 395V415.7L444.7 394L223 407.7Z" fill="#3595F6" fill-opacity="0.75"/>
<path d="M223 382.7V357.7L445.5 337.4L515 374V394.7L443 366L223 382.7Z" fill="#3595F6" fill-opacity="0.75"/>
<path d="M223 356.7V332.7L446 308L515 352V373.7L445.7 335.7L223 356.7Z" fill="#3595F6" fill-opacity="0.75"/>
<path d="M223 331.7V307.7L445.5 279L515 330V350.7L444.7 308.4L223 331.7Z" fill="#3595F6" fill-opacity="0.75"/>
<path d="M222 307.7V283.7L444.3 250.7L515 310V329.7L445 279L222 307.7Z" fill="#3595F6" fill-opacity="0.75"/>
<path d="M223 282.7V258.7L444.2 223.7L514 287.7V308.7L445.3 250.4L223 282.7Z" fill="#3595F6" fill-opacity="0.75"/>
<path d="M223 258.7V233.7L445.3 195.7L514 266V286.7L445 222.7L223 258.7Z" fill="#3595F6" fill-opacity="0.75"/>
<path d="M223 232.7V207.7L443.8 164L514 243V265.7L445 192.4L223 232.7Z" fill="#3595F6" fill-opacity="0.75"/>
<path d="M224 208.7V183.7L444 135.7L514 220.7V243.7L443.3 164.4L224 208.7Z" fill="#3595F6" fill-opacity="0.75"/>
<path d="M223 183.7V158.7L442.8 106.7L514 199V221.7L444.3 135.4L223 183.7Z" fill="#3595F6" fill-opacity="0.75"/>
<path d="M223 158.7V132.7L445 76L514 177.7V198.7L444.7 107L223 158.7Z" fill="#3595F6" fill-opacity="0.75"/>

</svg>
